<?xml version="1.0" encoding="UTF-8" standalone="no"?>
<svg
   height="24px"
   viewBox="0 0 24 24"
   width="24px"
   fill="#90CAF9"
   version="1.1"
   id="svg2"
   sodipodi:docname="favicon.svg"
   inkscape:version="1.4.2 (f4327f4, 2025-05-13)"
   xmlns:inkscape="http://www.inkscape.org/namespaces/inkscape"
   xmlns:sodipodi="http://sodipodi.sourceforge.net/DTD/sodipodi-0.dtd"
   xmlns="http://www.w3.org/2000/svg"
   xmlns:svg="http://www.w3.org/2000/svg">
  <defs
     id="defs2" />
  <sodipodi:namedview
     id="namedview2"
     pagecolor="#ffffff"
     bordercolor="#000000"
     borderopacity="0.25"
     inkscape:showpageshadow="2"
     inkscape:pageopacity="0.0"
     inkscape:pagecheckerboard="0"
     inkscape:deskcolor="#d1d1d1"
     showguides="true"
     inkscape:zoom="45.254834"
     inkscape:cx="1.4142136"
     inkscape:cy="11.479437"
     inkscape:window-width="3440"
     inkscape:window-height="1369"
     inkscape:window-x="-8"
     inkscape:window-y="-8"
     inkscape:window-maximized="1"
     inkscape:current-layer="svg2">
    <sodipodi:guide
       position="20.125,22.15625"
       orientation="0.70738967,-0.70682378"
       id="guide6"
       inkscape:locked="false" />
    <sodipodi:guide
       position="21.96875,2.25"
       orientation="1,0"
       id="guide7"
       inkscape:locked="false" />
    <sodipodi:guide
       position="11.15625,22"
       orientation="0,-1"
       id="guide8"
       inkscape:locked="false" />
  </sodipodi:namedview>
  <path
     d="M0 0h24v24H0V0z"
     fill="none"
     id="path1" />
  <path
     d="m 21.96754,4.0441791 0.0025,-2.0460212 -2.006489,0.00668 -6.229212,6.2101648 2.068661,1.9856 c 2.723405,-2.7267852 6.16454,-6.1564199 6.16454,-6.1564199 z"
     id="path6"
     sodipodi:nodetypes="cccccc" />
  <path
     d="m 12,12.5 c -0.28,0 -0.5,0.22 -0.5,0.5 0,0.28 0.22,0.5 0.5,0.5 0.28,0 0.5,-0.22 0.5,-0.5 0,-0.28 -0.22,-0.5 -0.5,-0.5 z"
     id="path5" />
  <path
     id="path2"
     d="M 6 2 C 3.79 2 2 3.79 2 6 C 2 8.21 3.79 10 6 10 C 6.59 10 7.140625 9.870625 7.640625 9.640625 L 10 12 L 7.640625 14.359375 C 7.140625 14.129375 6.59 14 6 14 C 3.79 14 2 15.79 2 18 C 2 20.21 3.79 22 6 22 C 8.21 22 10 20.21 10 18 C 10 17.41 9.870625 16.859375 9.640625 16.359375 L 12 14 L 19 21 L 22 21 L 22 20 L 9.640625 7.640625 C 9.870625 7.140625 10 6.59 10 6 C 10 3.79 8.21 2 6 2 z M 6 4 C 7.1 4 8 4.89 8 6 C 8 7.11 7.1 8 6 8 C 4.9 8 4 7.11 4 6 C 4 4.89 4.9 4 6 4 z M 6 16 C 7.1 16 8 16.89 8 18 C 8 19.11 7.1 20 6 20 C 4.9 20 4 19.11 4 18 C 4 16.89 4.9 16 6 16 z " />
</svg>
